# xmcd
#
# Track frame offsets:
# 183
# 11760
# 23200
# 34478
# 46218
# 54720
# 67133
# 79243
# 91890
# 104923
# 117580
# 127093
# 137833
# 148973
# 160403
# 171903
#
# Disc length: 2449 seconds
#
#
# Revision: 2
# Processed by: cddbd v1.5.1PL2 Copyright (c) Steve Scherf et al.
# Submitted via: FreeRIP 2.945 
#
DISCID=fb098f10
DTITLE=Don Reno and Red Smiley - 16 Greatest Gospel Hits
DYEAR=1987
DGENRE=Gospel
TTITLE0=I'm Using My Bible For A Roadmap
TTITLE1=He Will Set Your Fields On Fire
TTITLE2=There's A Highway To Heaven
TTITLE3=How I Miss My Darling Mother
TTITLE4=River Of Jordan
TTITLE5=Tree Of Life
TTITLE6=My Mother's Bible
TTITLE7=The Last Mile
TTITLE8=Someone Will Love Me In Heaven
TTITLE9=The New Jerusalem
TTITLE10=Echoes From The Burning Bush
TTITLE11=The Lord's Last Supper
TTITLE12=I'm Building A Mansion In Heaven
TTITLE13=He's Coming Back To Earth Again
TTITLE14=Jesus Is Waiting
TTITLE15=Since I've Used My Bible For A Roadmap
EXTD=Highland Music
EXTT0=
EXTT1=
EXTT2=
EXTT3=
EXTT4=
EXTT5=
EXTT6=
EXTT7=
EXTT8=
EXTT9=
EXTT10=
EXTT11=
EXTT12=
EXTT13=
EXTT14=
EXTT15=
PLAYORDER=
